<svg xmlns="http://www.w3.org/2000/svg" viewBox="0 0 25 21.154">
  <g id="Data_Model" data-name="Data Model" transform="translate(0 0)">
    <path id="Path_15" data-name="Path 15" d="M24.294,37.251a2.315,2.315,0,0,0-1.7-.706H2.4a2.315,2.315,0,0,0-1.7.706A2.315,2.315,0,0,0,0,38.949V55.3a2.315,2.315,0,0,0,.706,1.7,2.314,2.314,0,0,0,1.7.706H22.6A2.41,2.41,0,0,0,25,55.3V38.949A2.315,2.315,0,0,0,24.294,37.251ZM7.693,55.295a.463.463,0,0,1-.481.481H2.4a.462.462,0,0,1-.481-.481V52.41a.463.463,0,0,1,.481-.481H7.212a.463.463,0,0,1,.481.481v2.885Zm0-5.769a.463.463,0,0,1-.481.481H2.4a.463.463,0,0,1-.481-.481V46.641A.462.462,0,0,1,2.4,46.16H7.212a.463.463,0,0,1,.481.481v2.885Zm0-5.769a.463.463,0,0,1-.481.481H2.4a.463.463,0,0,1-.481-.481V40.872a.463.463,0,0,1,.481-.481H7.212a.463.463,0,0,1,.481.481v2.885Zm7.692,11.538a.462.462,0,0,1-.481.481H10.1a.462.462,0,0,1-.481-.481V52.41a.463.463,0,0,1,.481-.481H14.9a.462.462,0,0,1,.48.481v2.885h0Zm0-5.769a.462.462,0,0,1-.481.481H10.1a.463.463,0,0,1-.481-.481V46.641a.462.462,0,0,1,.481-.481H14.9a.462.462,0,0,1,.48.481v2.885Zm0-5.769a.462.462,0,0,1-.481.481H10.1a.463.463,0,0,1-.481-.481V40.872a.463.463,0,0,1,.481-.481H14.9a.462.462,0,0,1,.48.481v2.885Zm7.692,11.538a.462.462,0,0,1-.481.481H17.789a.462.462,0,0,1-.48-.481V52.41a.462.462,0,0,1,.48-.481H22.6a.463.463,0,0,1,.481.481Zm0-5.769a.462.462,0,0,1-.481.481H17.789a.462.462,0,0,1-.48-.481V46.641a.462.462,0,0,1,.48-.481H22.6a.462.462,0,0,1,.481.481Zm0-5.769a.462.462,0,0,1-.481.481H17.789a.462.462,0,0,1-.48-.481V40.872a.462.462,0,0,1,.48-.481H22.6a.462.462,0,0,1,.481.481Z" transform="translate(0 -36.545)" fill="#6f7284"/>
  </g>
</svg>
