<svg id="Uncombine" xmlns="http://www.w3.org/2000/svg" width="25" height="25" viewBox="0 0 25 25">
  <g id="Rectangle_1460" data-name="Rectangle 1460" fill="#fff" stroke="#6f7284" stroke-linecap="round" stroke-width="1">
    <rect width="16" height="16" rx="2" stroke="none"/>
    <rect x="0.5" y="0.5" width="15" height="15" rx="1.5" fill="none"/>
  </g>
  <g id="Rectangle_1461" data-name="Rectangle 1461" transform="translate(9 9)" fill="#fff" stroke="#6f7284" stroke-linecap="round" stroke-width="1" stroke-dasharray="4 2">
    <rect width="16" height="16" rx="2" stroke="none"/>
    <rect x="0.5" y="0.5" width="15" height="15" rx="1.5" fill="none"/>
  </g>
  <path id="Union_4" data-name="Union 4" d="M4.729,5.938l-.336-.383,1.14-1.3-.068,0H1a1,1,0,0,1-1-1V3.064a1,1,0,0,1,1-1H5.465l.067,0L4.393.767,4.729.383a1.052,1.052,0,0,1,1.625,0L7.976,2.236a1.393,1.393,0,0,1,.338.925,1.4,1.4,0,0,1-.338.926L6.353,5.938a1.052,1.052,0,0,1-1.625,0Z" transform="translate(16.296 11.826) rotate(45)" fill="#6f7284"/>
</svg>
