<svg xmlns="http://www.w3.org/2000/svg" width="25.263" height="25.059" viewBox="0 0 25.263 25.059">
  <g id="Group_2039" data-name="Group 2039" transform="translate(-1200 -220)">
    <path id="Subtraction_17" data-name="Subtraction 17" d="M15.893,25.059H2a2,2,0,0,1-2-2V2A2,2,0,0,1,2,0H12.781V2.176a2,2,0,0,0,2,2h3.112v6.961H13.5a2,2,0,0,0-2,2v1.568a2,2,0,0,0,2,2h4.39v6.352A2,2,0,0,1,15.893,25.059ZM3.556,19.49a1,1,0,0,0-1,1v.785a1,1,0,0,0,1,1h9.5a1,1,0,0,0,1-1v-.785a1,1,0,0,0-1-1Zm0-4.176a1,1,0,0,0-1,1V17.1a1,1,0,0,0,1,1h4.39a1,1,0,0,0,1-1v-.784a1,1,0,0,0-1-1Zm0-4.177a1,1,0,0,0-1,1v.785a1,1,0,0,0,1,1h4.39a1,1,0,0,0,1-1v-.785a1,1,0,0,0-1-1Zm0-4.176a1,1,0,0,0-1,1v.784a1,1,0,0,0,1,1h9.5a1,1,0,0,0,1-1V7.961a1,1,0,0,0-1-1Z" transform="translate(1200 220)" fill="#6f7284"/>
    <path id="Union_9" data-name="Union 9" d="M6.683,7.644l-.475-.493,1.607-1.67H1a1,1,0,0,1-1-1V3.657a1,1,0,0,1,1-1H7.815L6.207.987,6.683.494a1.58,1.58,0,0,1,2.295,0l2.294,2.383a1.729,1.729,0,0,1,0,2.383L8.977,7.644a1.58,1.58,0,0,1-2.295,0Z" transform="translate(1213.515 229.645)" fill="#6f7284"/>
  </g>
</svg>
