<svg xmlns="http://www.w3.org/2000/svg" width="24.908" height="23.214" viewBox="0 0 24.908 23.214">
  <g id="Component_240_24" data-name="Component 240 – 24" transform="translate(0.5 0.5)">
    <path id="Path_71" data-name="Path 71" d="M4.1,5.819A3.045,3.045,0,0,0,7.163,3.325h17.3a.417.417,0,1,0,0-.831H7.163A3.045,3.045,0,0,0,4.1,0,3.013,3.013,0,0,0,1,2.91,3.013,3.013,0,0,0,4.1,5.819ZM4.1.831A2.152,2.152,0,0,1,6.313,2.91,2.152,2.152,0,0,1,4.1,4.988,2.152,2.152,0,0,1,1.885,2.91,2.152,2.152,0,0,1,4.1.831Z" transform="translate(-1)" fill="#0e4f6e" stroke="#0e4f6e" stroke-width="1"/>
    <path id="Path_72" data-name="Path 72" d="M21.809,42a3.045,3.045,0,0,0-3.064,2.494H1.443a.417.417,0,1,0,0,.831h17.3a3.045,3.045,0,0,0,3.064,2.494,2.916,2.916,0,1,0,0-5.819Zm0,4.988a2.083,2.083,0,1,1,2.214-2.078A2.152,2.152,0,0,1,21.809,46.988Z" transform="translate(-1 -25.606)" fill="#0e4f6e" stroke="#0e4f6e" stroke-width="1"/>
    <path id="Path_73" data-name="Path 73" d="M24.465,23.252H16.216a3.128,3.128,0,0,0-3.17-2.666,3.128,3.128,0,0,0-3.17,2.666H1.443a.417.417,0,1,0,0,.831H9.9a3.142,3.142,0,0,0,3.143,2.494,3.141,3.141,0,0,0,3.142-2.494h8.278a.417.417,0,1,0,0-.831Zm-11.42,2.494a2.169,2.169,0,1,1,0-4.329,2.169,2.169,0,1,1,0,4.329Z" transform="translate(-1 -12.556)" fill="#0e4f6e" stroke="#0e4f6e" stroke-width="1"/>
  </g>
</svg>
