<svg xmlns="http://www.w3.org/2000/svg" viewBox="0 0 15.436 11.969">
  <g id="folder_4_" data-name="folder (4)" transform="translate(0 -0.5)">
    <path id="Path_1044" data-name="Path 1044" d="M16.1,161.546a1.291,1.291,0,0,0-1.109-.6H4.755a1.294,1.294,0,0,0-1.176.729L.871,167.347a.974.974,0,0,0,.953.726H12.716a1.229,1.229,0,0,0,1.1-.68l2.34-4.691A1.184,1.184,0,0,0,16.1,161.546Zm0,0" transform="translate(-0.845 -155.604)" fill="#6f7284"/>
    <path id="Path_1045" data-name="Path 1045" d="M2.183,5.193a1.294,1.294,0,0,1,1.176-.729H13V3.231a.94.94,0,0,0-.956-.922H6.422a.03.03,0,0,1-.016,0L5.4.9A.966.966,0,0,0,4.613.5H.956A.94.94,0,0,0,0,1.422V9.769Zm0,0" transform="translate(0 0)" fill="#6f7284"/>
  </g>
</svg>
