<svg xmlns="http://www.w3.org/2000/svg" width="25.999" height="25.998" viewBox="0 0 25.999 25.998">
  <path id="Union_56" data-name="Union 56" d="M-3975.546,2.272a2.73,2.73,0,0,1,2.273-2.686V-2q-.114,0-.229,0a6.478,6.478,0,0,1-3.967-1.349l-3.407,3.408a2.709,2.709,0,0,1,.33,1.3,2.73,2.73,0,0,1-2.727,2.728A2.731,2.731,0,0,1-3986,1.362a2.731,2.731,0,0,1,2.728-2.728,2.716,2.716,0,0,1,1.828.71l3.3-3.3a6.484,6.484,0,0,1-1.857-4.551,6.487,6.487,0,0,1,1.994-4.687l-1.161-1.16a1.791,1.791,0,0,1-.918.257,1.819,1.819,0,0,1-1.817-1.817,1.819,1.819,0,0,1,1.817-1.818,1.82,1.82,0,0,1,1.818,1.818,1.807,1.807,0,0,1-.257.917l1.217,1.217a6.476,6.476,0,0,1,3.812-1.234,6.484,6.484,0,0,1,4.552,1.858l2.823-2.823a2.709,2.709,0,0,1-.33-1.3A2.73,2.73,0,0,1-3963.729-20,2.731,2.731,0,0,1-3961-17.273a2.73,2.73,0,0,1-2.728,2.727,2.71,2.71,0,0,1-1.828-.71l-2.788,2.787a6.479,6.479,0,0,1,1.35,3.968,6.474,6.474,0,0,1-1.234,3.812l1.765,1.764a1.789,1.789,0,0,1,.917-.257,1.819,1.819,0,0,1,1.818,1.817,1.819,1.819,0,0,1-1.818,1.818,1.82,1.82,0,0,1-1.818-1.818,1.793,1.793,0,0,1,.259-.918l-1.707-1.707a6.492,6.492,0,0,1-3.55,1.895v1.68a2.73,2.73,0,0,1,2.271,2.686A2.729,2.729,0,0,1-3972.818,5,2.73,2.73,0,0,1-3975.546,2.272Z" transform="translate(3986.5 20.5)" fill="#6f7284" stroke="rgba(0,0,0,0)" stroke-width="1"/>
</svg>
