<svg xmlns="http://www.w3.org/2000/svg" width="25" height="24.672" viewBox="0 0 25 24.672">
  <g id="_x32_0" transform="translate(-2 0.767)">
    <g id="Group_1970" data-name="Group 1970" transform="translate(2 -0.767)">
      <path id="Path_1248" data-name="Path 1248" d="M34.027,20.96a.523.523,0,0,1,.13.505,34.969,34.969,0,0,1-1.8,4.865c-1.8,3.99-5.01,7.974-6.344,7.974a.512.512,0,0,1-.219-.042c-.2-.094-.833-.375-.354-3.6A25.781,25.781,0,0,1,27.4,24.1a36.2,36.2,0,0,1,2.458-4.573.532.532,0,0,1,.458-.234c.266-.542.557-1.13.844-1.7a4.216,4.216,0,0,0,1.6,1.24,4.341,4.341,0,0,0,1.776.385c.073,0,.146,0,.219-.005C34.511,19.793,34.256,20.4,34.027,20.96Z" transform="translate(-13.147 -9.632)" fill="#6f7284"/>
      <g id="Group_1711" data-name="Group 1711" transform="translate(18.096 0)">
        <path id="Path_1249" data-name="Path 1249" d="M43.648,5.476a9.4,9.4,0,0,1-.6,3.438,3.3,3.3,0,0,1-4.359,1.646,3.291,3.291,0,0,1-1.646-4.354A3.171,3.171,0,0,1,39.3,4.482a3.465,3.465,0,0,0,2.427-1.917.516.516,0,0,1,.656-.2C43.424,2.831,43.648,4.315,43.648,5.476Z" transform="translate(-36.745 -2.315)" fill="#6f7284"/>
      </g>
      <g id="Group_1712" data-name="Group 1712" transform="translate(0 1.44)">
        <path id="Path_1250" data-name="Path 1250" d="M19.338,10.422a4.3,4.3,0,0,1-.115-2.74,9.949,9.949,0,0,0-1.479-1.094,10.385,10.385,0,1,0-10.161,18.1,2.76,2.76,0,0,0,1.3.328,2.888,2.888,0,0,0,1.531-.448,2.766,2.766,0,0,0,1.318-2.448,4.736,4.736,0,0,1,1.583-4,4.059,4.059,0,0,1,2.161-.833,35.8,35.8,0,0,1,2.354-4.323,1.542,1.542,0,0,1,.6-.542c.3-.609.63-1.281.948-1.9A.635.635,0,0,1,19.338,10.422ZM7.849,19.385a1.708,1.708,0,1,1,1.7-1.708A1.706,1.706,0,0,1,7.849,19.385Zm.917-5.828a1.711,1.711,0,1,1,1.7-1.708,1.706,1.706,0,0,1-1.7,1.708Zm5.979-.917a1.711,1.711,0,1,1,1.7-1.708A1.709,1.709,0,0,1,14.745,12.64Z" transform="translate(-2 -5.081)" fill="#6f7284"/>
      </g>
    </g>
  </g>
</svg>
