<svg xmlns="http://www.w3.org/2000/svg" width="23.027" height="23.002" viewBox="0 0 23.027 23.002">
  <g id="Group_1893" data-name="Group 1893" transform="translate(-1361 812.663)">
    <path id="Path_1043" data-name="Path 1043" d="M14.22,82.473,1.55,95.143a.5.5,0,0,0-.132.231l-1.4,5.637a.5.5,0,0,0,.484.62.494.494,0,0,0,.121-.015l5.637-1.4a.5.5,0,0,0,.231-.132L19.158,87.41Zm0,0" transform="translate(1361.001 -891.291)" fill="#6f7284"/>
    <path id="Path_1044" data-name="Path 1044" d="M340.993,2.364l-1.41-1.41a2.554,2.554,0,0,0-3.527,0l-1.728,1.728,4.937,4.937,1.728-1.728a2.495,2.495,0,0,0,0-3.527Zm0,0" transform="translate(1042.304 -812.909)" fill="#6f7284"/>
  </g>
</svg>
