<svg xmlns="http://www.w3.org/2000/svg" width="26.962" height="25.059" viewBox="0 0 26.962 25.059">
  <g id="printing" transform="translate(0 -18.065)">
    <g id="Group_2041" data-name="Group 2041" transform="translate(8.688 38.169)">
      <g id="Group_2040" data-name="Group 2040">
        <path id="Path_1592" data-name="Path 1592" d="M173.665,399.834h-7.789a.9.9,0,0,0,0,1.8h7.789a.9.9,0,0,0,0-1.8Z" transform="translate(-164.977 -399.834)" fill="#6f7284"/>
      </g>
    </g>
    <g id="Group_2043" data-name="Group 2043" transform="translate(8.688 35.334)">
      <g id="Group_2042" data-name="Group 2042" transform="translate(0 0)">
        <path id="Path_1593" data-name="Path 1593" d="M173.665,346.006h-7.789a.9.9,0,1,0,0,1.8h7.789a.9.9,0,0,0,0-1.8Z" transform="translate(-164.977 -346.006)" fill="#6f7284"/>
      </g>
    </g>
    <g id="Group_2045" data-name="Group 2045" transform="translate(0 18.065)">
      <g id="Group_2044" data-name="Group 2044" transform="translate(0 0)">
        <path id="Path_1594" data-name="Path 1594" d="M24.865,24.165h-2.86v-5.2a.9.9,0,0,0-.9-.9H5.855a.9.9,0,0,0-.9.9v5.2H2.1a2.1,2.1,0,0,0-2.1,2.1V35.3a2.1,2.1,0,0,0,2.1,2.1h2.86v4.824a.9.9,0,0,0,.9.9H21.106a.9.9,0,0,0,.9-.9V37.4h2.86a2.1,2.1,0,0,0,2.1-2.1V26.262A2.1,2.1,0,0,0,24.865,24.165Zm-18.111-4.3H20.208v4.3H6.754ZM20.207,41.327H6.754V33.974H20.207C20.207,34.2,20.207,41.158,20.207,41.327Zm.9-11.884H18.819a.9.9,0,0,1,0-1.8h2.288a.9.9,0,0,1,0,1.8Z" transform="translate(0 -18.065)" fill="#6f7284"/>
      </g>
    </g>
  </g>
</svg>
