<svg xmlns="http://www.w3.org/2000/svg" width="18.01" height="11.549" viewBox="0 0 18.01 11.549">
  <path id="Path_1154" data-name="Path 1154" d="M.385,16.334A.384.384,0,0,0,.743,16.1h0C.787,15.995,1.9,13.5,6.066,13a28.533,28.533,0,0,1,3.168-.169v3.114a.385.385,0,0,0,.6.321l8-5.386a.387.387,0,0,0,.171-.321.391.391,0,0,0-.171-.322L9.833,4.851a.38.38,0,0,0-.4-.02.384.384,0,0,0-.2.339v2.9C7.491,8.3,0,9.642,0,15.95a.387.387,0,0,0,.31.379A.477.477,0,0,0,.385,16.334Z" transform="translate(0 -4.785)" fill="#6f7284"/>
</svg>
