<svg xmlns="http://www.w3.org/2000/svg" width="21.874" height="24.887" viewBox="0 0 21.874 24.887">
  <g id="Group_2088" data-name="Group 2088" transform="translate(-1374.568 -1321.063)">
    <g id="Group_1106" data-name="Group 1106" transform="translate(1376.099 1328.422)">
      <g id="Group_1105" data-name="Group 1105" transform="translate(-0.014 -0.069)">
        <path id="Path_1053" data-name="Path 1053" d="M62.2,150,63.5,165.591a2.2,2.2,0,0,0,2.179,2.006h11.9a2.2,2.2,0,0,0,2.179-2.006L81.045,150Zm5.774,14.68a.729.729,0,0,1-.727-.684l-.729-11.764a.729.729,0,0,1,.682-.773.718.718,0,0,1,.773.682l.729,11.763A.729.729,0,0,1,67.979,164.68Zm4.376-.729a.729.729,0,1,1-1.458,0V152.187a.729.729,0,1,1,1.458,0Zm4.373-11.718L76,164a.729.729,0,0,1-1.455-.091l.729-11.764a.741.741,0,0,1,.773-.682A.729.729,0,0,1,76.728,152.233Z" transform="translate(-62.205 -150)" fill="#6f7284"/>
      </g>
    </g>
    <g id="Group_1108" data-name="Group 1108" transform="translate(1374.568 1321.063)">
      <g id="Group_1107" data-name="Group 1107" transform="translate(0)">
        <path id="Path_1054" data-name="Path 1054" d="M51.416,2.917H47.041V2.187A2.19,2.19,0,0,0,44.854,0H39.021a2.19,2.19,0,0,0-2.187,2.187v.729H32.458a1.458,1.458,0,0,0,0,2.917H51.416a1.458,1.458,0,0,0,0-2.917Zm-5.833,0H38.291V2.187a.73.73,0,0,1,.729-.729h5.833a.73.73,0,0,1,.729.729Z" transform="translate(-31 0)" fill="#6f7284"/>
      </g>
    </g>
  </g>
</svg>
