<svg xmlns="http://www.w3.org/2000/svg" width="18.01" height="11.549" viewBox="0 0 18.01 11.549">
  <path id="Path_1154" data-name="Path 1154" d="M17.624,16.334a.384.384,0,0,1-.357-.234h0c-.045-.105-1.159-2.6-5.323-3.1a28.533,28.533,0,0,0-3.168-.169v3.114a.385.385,0,0,1-.6.321l-8-5.386A.387.387,0,0,1,0,10.56a.391.391,0,0,1,.171-.322L8.177,4.851a.38.38,0,0,1,.4-.02.384.384,0,0,1,.2.339v2.9c1.74.227,9.232,1.573,9.232,7.881a.387.387,0,0,1-.31.379A.477.477,0,0,1,17.624,16.334Z" transform="translate(0 -4.785)" fill="#6f7284"/>
</svg>
