<svg xmlns="http://www.w3.org/2000/svg" width="21.437" height="21.156" viewBox="0 0 21.437 21.156">
  <g id="_x32_0" transform="translate(-2 -2.315)">
    <path id="Path_2391" data-name="Path 2391" d="M32.778,20.479a.449.449,0,0,1,.112.433,29.987,29.987,0,0,1-1.545,4.171c-1.541,3.421-4.3,6.838-5.44,6.838a.439.439,0,0,1-.188-.036c-.174-.08-.715-.322-.3-3.086a22.107,22.107,0,0,1,1.679-5.632A31.04,31.04,0,0,1,29.2,19.246a.456.456,0,0,1,.393-.2c.228-.464.478-.969.723-1.46a3.615,3.615,0,0,0,1.371,1.063,3.722,3.722,0,0,0,1.523.33c.063,0,.125,0,.188,0C33.193,19.478,32.974,20,32.778,20.479Z" transform="translate(-12.873 -8.45)" fill="#ededed"/>
    <g id="Group_3275" data-name="Group 3275" transform="translate(17.517 2.315)">
      <path id="Path_2392" data-name="Path 2392" d="M42.664,5.026a8.064,8.064,0,0,1-.518,2.948,2.827,2.827,0,0,1-3.738,1.411A2.822,2.822,0,0,1,37,5.651a2.719,2.719,0,0,1,1.938-1.478,2.971,2.971,0,0,0,2.081-1.644.442.442,0,0,1,.563-.174C42.472,2.757,42.664,4.03,42.664,5.026Z" transform="translate(-36.745 -2.315)" fill="#ededed"/>
    </g>
    <g id="Group_3276" data-name="Group 3276" transform="translate(2 3.551)">
      <path id="Path_2393" data-name="Path 2393" d="M16.867,9.661a3.686,3.686,0,0,1-.1-2.349A8.531,8.531,0,0,0,15.5,6.374,8.905,8.905,0,1,0,6.788,21.9a2.367,2.367,0,0,0,1.117.281,2.476,2.476,0,0,0,1.313-.384,2.372,2.372,0,0,0,1.13-2.1,4.061,4.061,0,0,1,1.358-3.43,3.48,3.48,0,0,1,1.853-.715,30.7,30.7,0,0,1,2.019-3.707,1.322,1.322,0,0,1,.518-.464c.259-.523.54-1.1.813-1.63A.544.544,0,0,1,16.867,9.661ZM7.015,17.347a1.465,1.465,0,1,1,1.46-1.465A1.463,1.463,0,0,1,7.015,17.347Zm.786-5a1.467,1.467,0,1,1,1.46-1.465A1.463,1.463,0,0,1,7.8,12.349Zm5.127-.786a1.467,1.467,0,1,1,1.46-1.465A1.466,1.466,0,0,1,12.928,11.563Z" transform="translate(-2 -5.081)" fill="#ededed"/>
    </g>
  </g>
</svg>
