<svg xmlns="http://www.w3.org/2000/svg" width="21.409" height="20" viewBox="0 0 21.409 20">
  <g id="calendar_1_" data-name="calendar (1)" transform="translate(-1 -2)">
    <path id="Path_1630" data-name="Path 1630" d="M20.075,2h-2V4A.667.667,0,0,1,16.74,4V2H6.069V4A.667.667,0,0,1,4.735,4V2h-2A1.836,1.836,0,0,0,1,4V6.4H22.343V4a2.25,2.25,0,0,0-2.268-2ZM1,7.8V20a1.809,1.809,0,0,0,1.8,2H20.142a2.25,2.25,0,0,0,2.268-2V7.8ZM6.936,19h-1.6a.526.526,0,0,1-.534-.533V16.8a.526.526,0,0,1,.534-.533H7a.526.526,0,0,1,.534.533v1.667A.584.584,0,0,1,6.936,19Zm0-6h-1.6a.526.526,0,0,1-.534-.533V10.8a.526.526,0,0,1,.534-.533H7a.526.526,0,0,1,.534.533v1.667A.584.584,0,0,1,6.936,13Zm5.336,6H10.6a.526.526,0,0,1-.534-.533V16.8a.526.526,0,0,1,.534-.533h1.667a.526.526,0,0,1,.534.533v1.667A.491.491,0,0,1,12.272,19Zm0-6H10.6a.526.526,0,0,1-.534-.533V10.8a.526.526,0,0,1,.534-.533h1.667a.526.526,0,0,1,.534.533v1.667A.491.491,0,0,1,12.272,13Zm5.336,6H15.94a.526.526,0,0,1-.534-.533V16.8a.526.526,0,0,1,.534-.533h1.667a.526.526,0,0,1,.534.533v1.667A.491.491,0,0,1,17.607,19Zm0-6H15.94a.526.526,0,0,1-.534-.533V10.8a.526.526,0,0,1,.534-.533h1.667a.526.526,0,0,1,.534.533v1.667A.491.491,0,0,1,17.607,13Z" transform="translate(0 0)" fill="#6f7284"/>
  </g>
</svg>
