<svg xmlns="http://www.w3.org/2000/svg" width="25.016" height="14.912" viewBox="0 0 25.016 14.912">
  <g id="eye" transform="translate(0 -98.725)">
    <path id="Path_1401" data-name="Path 1401" d="M12.508,98.725c-4.78,0-9.114,2.615-12.312,6.862a.99.99,0,0,0,0,1.182c3.2,4.252,7.533,6.867,12.312,6.867s9.114-2.615,12.312-6.862a.99.99,0,0,0,0-1.182C21.622,101.34,17.287,98.725,12.508,98.725Zm.343,12.706a5.261,5.261,0,1,1,4.907-4.907A5.265,5.265,0,0,1,12.851,111.431Zm-.159-2.426a2.833,2.833,0,1,1,2.646-2.646A2.828,2.828,0,0,1,12.692,109.006Z" transform="translate(0 0)" fill="#6f7284"/>
  </g>
</svg>
