<svg xmlns="http://www.w3.org/2000/svg" width="20.618" height="20.452" viewBox="0 0 20.618 20.452">
  <g id="Group_2039" data-name="Group 2039" transform="translate(-1200 -220)">
    <path id="Subtraction_17" data-name="Subtraction 17" d="M12.6,20.452H2a2,2,0,0,1-2-2V2A2,2,0,0,1,2,0h8.431V1.409a2,2,0,0,0,2,2H14.6V9.089H11.388a2,2,0,0,0-2,2v.544a2,2,0,0,0,2,2H14.6v4.818A2,2,0,0,1,12.6,20.452ZM3.086,15.907a1,1,0,0,0-1,1v.273a1,1,0,0,0,1,1h7.388a1,1,0,0,0,1-1v-.273a1,1,0,0,0-1-1Zm0-3.408a1,1,0,0,0-1,1v.273a1,1,0,0,0,1,1H6.3a1,1,0,0,0,1-1V13.5a1,1,0,0,0-1-1Zm0-3.409a1,1,0,0,0-1,1v.272a1,1,0,0,0,1,1H6.3a1,1,0,0,0,1-1V10.09a1,1,0,0,0-1-1Zm0-3.408a1,1,0,0,0-1,1v.273a1,1,0,0,0,1,1h7.388a1,1,0,0,0,1-1V6.681a1,1,0,0,0-1-1Z" transform="translate(1200 220)" fill="#6f7284"/>
    <path id="Union_9" data-name="Union 9" d="M5.454,6.239l-.388-.4L6.379,4.474H1a1,1,0,0,1-1-1V3.168a1,1,0,0,1,1-1H6.379L5.066.806,5.454.4A1.289,1.289,0,0,1,7.327.4L9.2,2.348a1.414,1.414,0,0,1,0,1.946L7.327,6.239a1.289,1.289,0,0,1-1.873,0Z" transform="translate(1211.03 227.872)" fill="#6f7284"/>
  </g>
</svg>
