<svg xmlns="http://www.w3.org/2000/svg" width="18" height="18" viewBox="0 0 18 18">
  <g id="Group_1994" data-name="Group 1994" transform="translate(0 -0.166)">
    <g id="Rectangle_1460" data-name="Rectangle 1460" transform="translate(7 0.166)" fill="#fff" stroke="#6f7284" stroke-linecap="round" stroke-width="1">
      <rect width="11" height="11" rx="2" stroke="none"/>
      <rect x="0.5" y="0.5" width="10" height="10" rx="1.5" fill="none"/>
    </g>
    <g id="Rectangle_1461" data-name="Rectangle 1461" transform="translate(0 6.166)" fill="#fff" stroke="#6f7284" stroke-linecap="round" stroke-width="1" stroke-dasharray="4 2">
      <rect width="12" height="12" rx="2" stroke="none"/>
      <rect x="0.5" y="0.5" width="11" height="11" rx="1.5" fill="none"/>
    </g>
    <path id="Union_4" data-name="Union 4" d="M3.436,4.315l-.245-.279.835-.951a.8.8,0,0,1-.126.01H.8A.8.8,0,0,1,.8,1.5H3.9a.8.8,0,0,1,.127.01L3.191.557,3.436.279a.763.763,0,0,1,1.18,0L5.8,1.624A1.019,1.019,0,0,1,6.04,2.3a1.016,1.016,0,0,1-.244.672L4.616,4.315a.763.763,0,0,1-1.18,0Z" transform="translate(2.053 12.863) rotate(-45)" fill="#6f7284"/>
  </g>
</svg>
