<svg xmlns="http://www.w3.org/2000/svg" width="23.131" height="21.82" viewBox="0 0 23.131 21.82">
  <g id="Group_576" data-name="Group 576" transform="translate(0)">
    <g id="Group_575" data-name="Group 575">
      <path id="Path_552" data-name="Path 552" d="M-3756.448,994.225l-5.36-5.056h0a.878.878,0,0,0-.6-.234h-16.079a.824.824,0,0,0-.847.8v20.224a.824.824,0,0,0,.847.8h21.438a.823.823,0,0,0,.846-.8V994.789A.778.778,0,0,0-3756.448,994.225Zm-15.831-3.693h9.026v4.723h-9.026Zm11.039,18.627h-13.051v-6.717h13.051Zm3.348,0h-1.655v-7.515a.823.823,0,0,0-.847-.8h-14.744a.824.824,0,0,0-.847.8v7.515h-1.654V990.532h3.668v5.521a.823.823,0,0,0,.846.8h10.719a.824.824,0,0,0,.847-.8V991.66l3.667,3.459Z" transform="translate(3779.331 -988.935)" fill="#fff"/>
    </g>
  </g>
</svg>
