<svg xmlns="http://www.w3.org/2000/svg" width="25" height="25" viewBox="0 0 25 25">
  <g id="diskette_1_" data-name="diskette (1)" transform="translate(-1 -1)">
    <path id="Path_1505" data-name="Path 1505" d="M25.758,6.242l-5-5A.833.833,0,0,0,20.167,1H18.5V7.667a1.667,1.667,0,0,1-1.667,1.667H10.167A1.667,1.667,0,0,1,8.5,7.667V1h-5A2.5,2.5,0,0,0,1,3.5v20A2.5,2.5,0,0,0,3.5,26H5.167V18.5a2.5,2.5,0,0,1,2.5-2.5H19.333a2.5,2.5,0,0,1,2.5,2.5V26H23.5A2.5,2.5,0,0,0,26,23.5V6.833a.833.833,0,0,0-.242-.592Z" transform="translate(0 0)" fill="#fff"/>
    <path id="Path_1506" data-name="Path 1506" d="M12,1h6.118V7.118H12Z" transform="translate(-1.559 0)" fill="#fff"/>
    <path id="Path_1507" data-name="Path 1507" d="M21.4,21H8.893A.837.837,0,0,0,8,21.765v6.883H22.293V21.765A.837.837,0,0,0,21.4,21Z" transform="translate(-1.646 -2.648)" fill="#fff"/>
  </g>
</svg>
