<svg xmlns="http://www.w3.org/2000/svg" width="24.898" height="24.898" viewBox="0 0 24.898 24.898">
  <g id="wrench" transform="translate(1.464 1.463)">
    <path id="Path_1430" data-name="Path 1430" d="M24.677,4.865a.729.729,0,0,0-1.221-.328L20.851,7.143l-2.579-.516-.516-2.579,2.606-2.606A.729.729,0,0,0,20.034.221a6.561,6.561,0,0,0-7.858,8.6L1.153,18.795A3.505,3.505,0,0,0,3.5,24.9h.091A3.473,3.473,0,0,0,6.1,23.745l9.972-11.022a6.562,6.562,0,0,0,8.6-7.858ZM3.605,22.023a.729.729,0,1,1,.729-.729A.729.729,0,0,1,3.605,22.023Z" transform="translate(-1.463 -1.463)" fill="#6f7284"/>
  </g>
</svg>
