<svg xmlns="http://www.w3.org/2000/svg" width="18.543" height="21.416" viewBox="0 0 18.543 21.416">
  <g id="siren" transform="translate(-34.356)">
    <g id="Group_3257" data-name="Group 3257" transform="translate(42.999)">
      <g id="Group_3256" data-name="Group 3256" transform="translate(0)">
        <rect id="Rectangle_2415" data-name="Rectangle 2415" width="1.255" height="2.831" fill="#6f7284"/>
      </g>
    </g>
    <g id="Group_3259" data-name="Group 3259" transform="translate(46.884 1.093)">
      <g id="Group_3258" data-name="Group 3258" transform="translate(0)">
        <rect id="Rectangle_2416" data-name="Rectangle 2416" width="2.831" height="1.255" transform="translate(0 2.432) rotate(-59.195)" fill="#6f7284"/>
      </g>
    </g>
    <g id="Group_3261" data-name="Group 3261" transform="translate(49.811 4.729)">
      <g id="Group_3260" data-name="Group 3260" transform="translate(0 0)">
        <rect id="Rectangle_2417" data-name="Rectangle 2417" width="2.831" height="1.255" transform="translate(0 1.347) rotate(-28.397)" fill="#6f7284"/>
      </g>
    </g>
    <g id="Group_3263" data-name="Group 3263" transform="translate(37.84 1.093)">
      <g id="Group_3262" data-name="Group 3262" transform="translate(0)">
        <rect id="Rectangle_2418" data-name="Rectangle 2418" width="1.255" height="2.832" transform="translate(0 0.643) rotate(-30.805)" fill="#6f7284"/>
      </g>
    </g>
    <g id="Group_3265" data-name="Group 3265" transform="translate(34.356 4.729)">
      <g id="Group_3264" data-name="Group 3264" transform="translate(0 0)">
        <rect id="Rectangle_2419" data-name="Rectangle 2419" width="1.255" height="2.831" transform="translate(0 1.104) rotate(-61.603)" fill="#6f7284"/>
      </g>
    </g>
    <g id="Group_3267" data-name="Group 3267" transform="translate(37.22 5.433)">
      <g id="Group_3266" data-name="Group 3266" transform="translate(0)">
        <path id="Path_2381" data-name="Path 2381" d="M109.233,129.877a6.414,6.414,0,0,0-6.407,6.407V141.5H115.64v-5.216A6.414,6.414,0,0,0,109.233,129.877Z" transform="translate(-102.826 -129.877)" fill="#6f7284"/>
      </g>
    </g>
    <g id="Group_3269" data-name="Group 3269" transform="translate(35.904 18.311)">
      <g id="Group_3268" data-name="Group 3268" transform="translate(0)">
        <rect id="Rectangle_2420" data-name="Rectangle 2420" width="15.445" height="3.105" fill="#6f7284"/>
      </g>
    </g>
  </g>
</svg>
