<svg xmlns="http://www.w3.org/2000/svg" width="20" height="20" viewBox="0 0 20 20">
  <path id="sync" d="M20,3.375V6.938a1.25,1.25,0,0,1-1.25,1.25H15.188a1.25,1.25,0,0,1,0-2.5h.955A7.507,7.507,0,0,0,3.013,7.268,1.25,1.25,0,0,1,.685,6.357,10,10,0,0,1,17.5,3.383V3.375a1.25,1.25,0,0,1,2.5,0Zm-1.393,8.648a1.25,1.25,0,0,0-1.62.708,7.508,7.508,0,0,1-13.04,1.706h.866a1.25,1.25,0,1,0,0-2.5H1.25A1.25,1.25,0,0,0,0,13.188V16.75a1.25,1.25,0,1,0,2.5,0v-.133a10.059,10.059,0,0,0,1.8,1.6,10,10,0,0,0,15.017-4.573,1.25,1.25,0,0,0-.708-1.62Z" transform="translate(0 0)" fill="#6f7284"/>
</svg>
